<?xml version="1.0" encoding="UTF-8"?>
<svg xmlns="http://www.w3.org/2000/svg" xmlns:xlink="http://www.w3.org/1999/xlink" width="1500px" height="144px" viewBox="0 0 370 72" version="1.1">
<defs>
<linearGradient id="linear0" gradientUnits="userSpaceOnUse" x1="20.7016" y1="25.471" x2="153.436" y2="158.205" gradientTransform="matrix(0.499325,0,0,0.5,0,0)">
<stop offset="0" style="stop-color:rgb(91.764706%,8.235294%,46.27451%);stop-opacity:1;"/>
<stop offset="0.751397" style="stop-color:rgb(37.647059%,14.117647%,90.196078%);stop-opacity:1;"/>
<stop offset="0.775667" style="stop-color:rgb(37.647059%,14.117647%,90.196078%);stop-opacity:1;"/>
<stop offset="0.997207" style="stop-color:rgb(0%,25.490196%,82.745098%);stop-opacity:1;"/>
<stop offset="1" style="stop-color:rgb(0%,25.490196%,82.745098%);stop-opacity:1;"/>
</linearGradient>
</defs>
<g id="surface1">
<path style=" stroke:none;fill-rule:nonzero;fill:rgb(0%,0%,40%);fill-opacity:1;" d="M 78.789062 10.347656 L 68.453125 10.347656 L 68.453125 20.699219 L 78.789062 20.699219 Z M 78.789062 10.347656 "/>
<path style=" stroke:none;fill-rule:nonzero;fill:rgb(0%,0%,40%);fill-opacity:1;" d="M 89.125 20.699219 L 78.789062 20.699219 L 78.789062 31.046875 L 89.125 31.046875 Z M 89.125 20.699219 "/>
<path style=" stroke:none;fill-rule:nonzero;fill:rgb(0%,0%,40%);fill-opacity:1;" d="M 99.460938 31.046875 L 89.125 31.046875 L 89.125 41.398438 L 99.460938 41.398438 Z M 99.460938 31.046875 "/>
<path style=" stroke:none;fill-rule:nonzero;fill:rgb(0%,0%,40%);fill-opacity:1;" d="M 68.453125 20.699219 L 58.117188 20.699219 L 58.117188 31.046875 L 68.453125 31.046875 Z M 68.453125 20.699219 "/>
<path style=" stroke:none;fill-rule:nonzero;fill:rgb(0%,0%,40%);fill-opacity:1;" d="M 78.789062 31.046875 L 68.453125 31.046875 L 68.453125 41.398438 L 78.789062 41.398438 Z M 78.789062 31.046875 "/>
<path style=" stroke:none;fill-rule:nonzero;fill:rgb(0%,0%,40%);fill-opacity:1;" d="M 68.453125 0 L 58.117188 0 L 58.117188 10.347656 L 68.453125 10.347656 Z M 68.453125 0 "/>
<path style=" stroke:none;fill-rule:nonzero;fill:url(#linear0);" d="M 46.070312 0.339844 C 33.515625 0.339844 23.066406 9.535156 21.085938 21.550781 C 9.132812 23.578125 0 34.015625 0 46.554688 C 0 60.535156 11.359375 71.910156 25.320312 71.910156 L 73.324219 71.910156 C 87.289062 71.910156 98.648438 60.535156 98.648438 46.554688 L 89.667969 46.554688 C 89.667969 55.578125 82.335938 62.917969 73.324219 62.917969 L 25.320312 62.917969 C 16.3125 62.917969 8.980469 55.578125 8.980469 46.554688 C 8.980469 37.53125 16.3125 30.191406 25.320312 30.191406 L 29.730469 30.191406 L 29.730469 25.695312 C 29.730469 16.671875 37.058594 9.332031 46.070312 9.332031 L 52.539062 9.332031 L 52.539062 0.339844 Z M 46.070312 0.339844 "/>
<path style=" stroke:none;fill-rule:nonzero;fill:rgb(0%,0%,40%);fill-opacity:1;" d="M 159.558594 34.101562 L 138.527344 34.101562 L 138.527344 42.5 L 149.730469 42.5 C 148.234375 46.519531 144.578125 48.980469 139.007812 48.980469 C 130.859375 48.980469 125.824219 43.761719 125.824219 36.621094 C 125.824219 29.238281 131.097656 24.019531 138.167969 24.019531 C 142.902344 24.019531 146.675781 26.179688 148.414062 28.941406 L 156.5625 24.261719 C 153.027344 18.621094 146.257812 14.660156 138.226562 14.660156 C 125.882812 14.660156 116.238281 24.378906 116.238281 36.558594 C 116.238281 48.621094 125.703125 58.339844 138.886719 58.339844 C 150.632812 58.339844 159.558594 50.539062 159.558594 37.699219 Z M 172.695312 46.101562 L 193.964844 46.101562 C 194.203125 44.960938 194.324219 43.761719 194.324219 42.5 C 194.324219 33.441406 187.851562 26.660156 179.105469 26.660156 C 169.636719 26.660156 163.167969 33.558594 163.167969 42.5 C 163.167969 51.441406 169.519531 58.339844 179.765625 58.339844 C 185.457031 58.339844 189.890625 56.238281 192.828125 52.160156 L 185.636719 48.019531 C 184.4375 49.339844 182.339844 50.300781 179.882812 50.300781 C 176.589844 50.300781 173.832031 49.21875 172.695312 46.101562 Z M 172.515625 39.378906 C 173.351562 36.320312 175.628906 34.640625 179.046875 34.640625 C 181.742188 34.640625 184.4375 35.898438 185.394531 39.378906 Z M 207.160156 46.101562 L 228.429688 46.101562 C 228.667969 44.960938 228.789062 43.761719 228.789062 42.5 C 228.789062 33.441406 222.316406 26.660156 213.570312 26.660156 C 204.101562 26.660156 197.632812 33.558594 197.632812 42.5 C 197.632812 51.441406 203.984375 58.339844 214.230469 58.339844 C 219.921875 58.339844 224.355469 56.238281 227.292969 52.160156 L 220.101562 48.019531 C 218.902344 49.339844 216.804688 50.300781 214.347656 50.300781 C 211.054688 50.300781 208.296875 49.21875 207.160156 46.101562 Z M 206.980469 39.378906 C 207.816406 36.320312 210.09375 34.640625 213.511719 34.640625 C 216.207031 34.640625 218.902344 35.898438 219.863281 39.378906 Z M 262.648438 57.5 L 251.445312 42.5 L 262.347656 27.5 L 251.863281 27.5 L 242.875 40.640625 L 242.875 15.5 L 233.886719 15.5 L 233.886719 57.5 L 242.875 57.5 L 242.875 44.238281 L 252.460938 57.5 Z M 286.863281 58.28125 C 280.511719 58.28125 275.261719 56.179688 271.105469 51.980469 C 266.992188 47.78125 264.933594 42.621094 264.933594 36.5 C 264.933594 30.378906 266.992188 25.21875 271.105469 21.019531 C 275.261719 16.820312 280.511719 14.71875 286.863281 14.71875 C 290.699219 14.71875 294.214844 15.640625 297.410156 17.480469 C 300.644531 19.320312 303.164062 21.800781 304.960938 24.921875 L 300.105469 27.738281 C 298.910156 25.421875 297.109375 23.578125 294.714844 22.21875 C 292.359375 20.820312 289.742188 20.121094 286.863281 20.121094 C 282.03125 20.121094 278.078125 21.679688 275 24.800781 C 271.964844 27.921875 270.445312 31.820312 270.445312 36.5 C 270.445312 41.140625 271.964844 45.019531 275 48.140625 C 278.078125 51.261719 282.03125 52.820312 286.863281 52.820312 C 289.742188 52.820312 292.359375 52.140625 294.714844 50.78125 C 297.109375 49.378906 298.910156 47.539062 300.105469 45.261719 L 304.960938 48.019531 C 303.203125 51.140625 300.707031 53.640625 297.46875 55.519531 C 294.234375 57.359375 290.699219 58.28125 286.863281 58.28125 Z M 314.269531 44.898438 C 314.789062 47.578125 316.007812 49.660156 317.925781 51.140625 C 319.882812 52.621094 322.28125 53.359375 325.117188 53.359375 C 329.070312 53.359375 331.945312 51.898438 333.742188 48.980469 L 338.179688 51.5 C 335.261719 56.019531 330.867188 58.28125 324.996094 58.28125 C 320.242188 58.28125 316.367188 56.800781 313.371094 53.839844 C 310.414062 50.839844 308.9375 47.058594 308.9375 42.5 C 308.9375 37.980469 310.394531 34.21875 313.3125 31.21875 C 316.226562 28.21875 320.003906 26.71875 324.636719 26.71875 C 329.03125 26.71875 332.605469 28.28125 335.363281 31.398438 C 338.15625 34.480469 339.554688 38.199219 339.554688 42.558594 C 339.554688 43.320312 339.496094 44.101562 339.375 44.898438 Z M 324.636719 31.640625 C 321.839844 31.640625 319.523438 32.441406 317.6875 34.039062 C 315.847656 35.601562 314.710938 37.699219 314.269531 40.339844 L 334.285156 40.339844 C 333.84375 37.5 332.726562 35.339844 330.929688 33.859375 C 329.128906 32.378906 327.03125 31.640625 324.636719 31.640625 Z M 345.546875 57.5 L 345.546875 13.699219 L 350.761719 13.699219 L 350.761719 57.5 Z M 358.714844 57.5 L 358.714844 13.699219 L 363.925781 13.699219 L 363.925781 57.5 Z M 358.714844 57.5 "/>
</g>
</svg>
